<svg width="24" height="24" viewBox="0 0 14 14" fill="none" xmlns="http://www.w3.org/2000/svg">
<path fill-rule="evenodd" clip-rule="evenodd" d="M12.1372 4.44709L11.7741 3.81703C11.4669 3.28391 10.7862 3.1 10.2524 3.4059V3.4059C9.99826 3.5556 9.69503 3.59807 9.40956 3.52395C9.12409 3.44983 8.87983 3.2652 8.73064 3.01078C8.63466 2.84907 8.58309 2.66488 8.58113 2.47684V2.47684C8.58979 2.17536 8.47605 1.88321 8.26583 1.66695C8.0556 1.45069 7.76679 1.32873 7.46519 1.32886H6.73369C6.43821 1.32885 6.15491 1.4466 5.94648 1.65603C5.73805 1.86547 5.62167 2.14933 5.62309 2.4448V2.4448C5.61433 3.05485 5.11726 3.54479 4.50714 3.54472C4.3191 3.54277 4.13491 3.4912 3.9732 3.39522V3.39522C3.43935 3.08932 2.75863 3.27323 2.45146 3.80636L2.06168 4.44709C1.75489 4.97954 1.9363 5.65983 2.46748 5.96883V5.96883C2.81276 6.16817 3.02546 6.53657 3.02546 6.93526C3.02546 7.33395 2.81276 7.70236 2.46748 7.9017V7.9017C1.93697 8.20861 1.75536 8.88725 2.06168 9.4181V9.4181L2.4301 10.0535C2.57402 10.3132 2.8155 10.5048 3.10109 10.586C3.38669 10.6672 3.69285 10.6312 3.95184 10.486V10.486C4.20644 10.3374 4.50984 10.2967 4.79459 10.3729C5.07935 10.4491 5.32187 10.6359 5.46824 10.8918C5.56422 11.0535 5.61579 11.2377 5.61775 11.4257V11.4257C5.61775 12.042 6.11737 12.5417 6.73369 12.5417H7.46519C8.07943 12.5417 8.57819 12.0453 8.58113 11.4311V11.4311C8.5797 11.1347 8.69682 10.85 8.90641 10.6404C9.116 10.4308 9.40067 10.3137 9.69708 10.3151C9.88466 10.3201 10.0681 10.3715 10.231 10.4646V10.4646C10.7635 10.7714 11.4438 10.59 11.7528 10.0588V10.0588L12.1372 9.4181C12.286 9.16269 12.3268 8.85849 12.2507 8.57286C12.1745 8.28724 11.9876 8.04377 11.7314 7.89636V7.89636C11.4752 7.74896 11.2883 7.50548 11.2121 7.21986C11.136 6.93424 11.1768 6.63004 11.3256 6.37462C11.4224 6.20568 11.5625 6.06559 11.7314 5.96883V5.96883C12.2594 5.66 12.4404 4.98368 12.1372 4.45243V4.45243V4.44709Z" stroke="#6B7280" stroke-linecap="round" stroke-linejoin="round"/>
<ellipse cx="7.10212" cy="6.93522" rx="1.53776" ry="1.53776" stroke="#6B7280" stroke-linecap="round" stroke-linejoin="round"/>
</svg>
